PathFileType	4	(X/Y/Z)	/Users/itak/Documents/Research/Walk-IL/dataset/trc/00222_00009.trc
DataRate	CameraRate	NumFrames	NumMarkers	Units	OrigDataRate	OrigDataStartFrame	OrigNumFrames
100.000000	100.000000	4	53	mm	100.000000	238	477
Frame#	Time	RPSI			LPSI			L3			STRN			T10			C7			CLAV			RBAK			LBAK			LSHO			LUPA			LAEL			LAOL			LWTS			LWPS			LFRA			LIFD			LHPS			LHTS			RSHO			RUPA			RAEL			RAOL			RWTS			RWPS			RFRA			RIFD			RHTS			RHPS			RBHD			LFHD			RFHD			LBHD			LHIP			RHIP			RASI			LASI			LKNE			LTHI			LANK			LTIP			LTOE			LMT1			LMT5			LHEE			RKNE			RANK			RTIP			RTOE			RMT1			RMT5			RHEE			RTHI			
		X1	Y1	Z1	X2	Y2	Z2	X3	Y3	Z3	X4	Y4	Z4	X5	Y5	Z5	X6	Y6	Z6	X7	Y7	Z7	X8	Y8	Z8	X9	Y9	Z9	X10	Y10	Z10	X11	Y11	Z11	X12	Y12	Z12	X13	Y13	Z13	X14	Y14	Z14	X15	Y15	Z15	X16	Y16	Z16	X17	Y17	Z17	X18	Y18	Z18	X19	Y19	Z19	X20	Y20	Z20	X21	Y21	Z21	X22	Y22	Z22	X23	Y23	Z23	X24	Y24	Z24	X25	Y25	Z25	X26	Y26	Z26	X27	Y27	Z27	X28	Y28	Z28	X29	Y29	Z29	X30	Y30	Z30	X31	Y31	Z31	X32	Y32	Z32	X33	Y33	Z33	X34	Y34	Z34	X35	Y35	Z35	X36	Y36	Z36	X37	Y37	Z37	X38	Y38	Z38	X39	Y39	Z39	X40	Y40	Z40	X41	Y41	Z41	X42	Y42	Z42	X43	Y43	Z43	X44	Y44	Z44	X45	Y45	Z45	X46	Y46	Z46	X47	Y47	Z47	X48	Y48	Z48	X49	Y49	Z49	X50	Y50	Z50	X51	Y51	Z51	X52	Y52	Z52	X53	Y53	Z53	

239	2.38	-317.9802856445312	1035.466918945312	-100.1099624633789	-324.3086853027344	1034.469970703125	19.92802429199219	-323.7073974609375	1122.919921875	-32.04712677001953	-586.270263671875	1295.888793945312	-33.02665710449219	-326.3654479980469	1248.338256835938	-47.95162963867188	-403.9127502441406	1506.79248046875	-53.55649566650391	-565.5189208984375	1414.36474609375	-39.41401290893555	-325.2177429199219	1368.811401367188	-128.9522705078125	-380.4330749511719	1473.171508789062	58.21903610229492	-466.7501831054688	1474.787109375	121.8089904785156	-416.4136657714844	1361.876098632812	201.5746154785156	-382.4925537109375	1154.31494140625	228.4843902587891	-319.3778686523438	1150.850341796875	168.4786529541016	-427.7880554199219	902.8577270507812	190.6286163330078	-384.1487426757812	896.5060424804688	263.9682922363281	-378.9864501953125	1045.751586914062	247.0476226806641	-378.627685546875	713.1636352539062	198.6891479492188	-378.13525390625	806.5093383789062	262.2928771972656	-428.9182434082031	796.5543212890625	218.205078125	-471.8988647460938	1454.244750976562	-215.0472717285156	-459.4391479492188	1388.701171875	-282.7967529296875	-464.994140625	1105.19384765625	-316.7793273925781	-415.663330078125	1099.025512695312	-233.8507690429688	-620.3921508789062	915.6538696289062	-241.8248596191406	-580.4454956054688	889.636474609375	-311.5357055664062	-501.1835632324219	1039.980712890625	-321.5439453125	-665.9645385742188	728.9413452148438	-221.5374908447266	-681.2002563476562	803.8255004882812	-243.8275604248047	-637.1828002929688	791.4237060546875	-300.2045288085938	-436.7145385742188	1652.166748046875	-104.5499877929688	-631.002685546875	1711.252807617188	-1.88521420955658	-635.1552124023438	1707.604248046875	-102.1674041748047	-475.146728515625	1665.880615234375	29.62258338928223	-436.9132080078125	970.82568359375	149.7210845947266	-405.7982482910156	998.352294921875	-215.9163513183594	-507.8244323730469	1036.649780273438	-186.1521148681641	-532.4729614257812	1013.549926757812	93.15951538085938	-612.615966796875	518.1334838867188	104.5687942504883	-556.2511596679688	648.3755493164062	137.1034088134766	-680.1537475585938	36.94496917724609	76.09030151367188	-632.0774536132812	287.7950439453125	100.85107421875	-887.001220703125	111.9233551025391	70.60116577148438	-832.710205078125	91.68218231201172	13.90604782104492	-796.5115356445312	71.95417022705078	119.6363677978516	-629.5274658203125	30.6600513458252	13.27759552001953	-386.2199401855469	508.7006530761719	-170.3720092773438	-269.8870239257812	35.53248596191406	-119.10888671875	-379.4363098144531	391.9503479003906	-147.9274291992188	-481.9242858886719	46.94961547851562	-90.80850219726562	-430.3348388671875	44.42424392700195	-44.43711853027344	-379.1056518554688	36.07915496826172	-154.2098083496094	-210.3237457275391	40.18274688720703	-55.14651489257812	-446.4456176757812	770.9949951171875	-222.958984375	
240	2.39	-310.3296813964844	1036.15087890625	-100.4054260253906	-316.4798583984375	1035.047485351562	19.73699378967285	-316.1936340332031	1123.278198242188	-32.29517364501953	-579.3231811523438	1295.91357421875	-33.47952651977539	-319.1954345703125	1248.747192382812	-48.25131607055664	-397.2340393066406	1507.15283203125	-54.24594879150391	-558.7269897460938	1414.38671875	-39.99456405639648	-318.1647644042969	1369.05029296875	-129.3175201416016	-373.8226318359375	1473.633178710938	57.58041000366211	-460.0558166503906	1475.175903320312	121.2396545410156	-408.9627075195312	1362.52392578125	200.9836120605469	-373.3987731933594	1155.140747070312	227.8449401855469	-310.3866577148438	1152.27294921875	167.6203460693359	-416.1931762695312	903.2837524414062	189.9586181640625	-372.281982421875	897.2632446289062	263.1752624511719	-368.7359619140625	1046.640991210938	246.3253784179688	-365.2784423828125	714.0870971679688	197.4085845947266	-365.3020324707031	807.3034057617188	261.2783813476562	-416.218994140625	796.9773559570312	217.3659362792969	-464.92724609375	1453.980224609375	-215.6629486083984	-452.3851318359375	1388.331176757812	-283.2768859863281	-458.6107788085938	1104.792724609375	-317.1690979003906	-409.4384155273438	1099.246826171875	-234.0871734619141	-614.6049194335938	916.265869140625	-241.0334777832031	-574.9679565429688	889.6688232421875	-310.7836608886719	-495.0093383789062	1039.663208007812	-321.6486511230469	-661.3822631835938	730.0438842773438	-219.7155303955078	-676.009033203125	804.934814453125	-242.2510528564453	-632.3776245117188	791.90234375	-298.7986145019531	-430.2201232910156	1652.415649414062	-105.5010147094727	-624.434326171875	1711.452758789062	-2.814728975296021	-628.6483764648438	1707.71923828125	-103.0839462280273	-468.5942993164062	1666.229370117188	28.66225051879883	-428.8544616699219	970.8165893554688	149.4132537841797	-398.0850524902344	999.2053833007812	-216.3701629638672	-499.9819030761719	1036.799560546875	-186.61279296875	-524.5387573242188	1013.367004394531	92.86018371582031	-605.6954956054688	518.5185546875	105.4247283935547	-548.6064453125	648.47119140625	138.2381286621094	-667.6962890625	36.51737213134766	75.66561126708984	-622.2603759765625	287.8468017578125	101.1223449707031	-875.1611328125	109.5506591796875	76.38420104980469	-822.5825805664062	90.22048950195312	18.09335708618164	-783.1578979492188	70.06158447265625	122.7671813964844	-618.7266845703125	31.24193572998047	11.37446689605713	-379.6809692382812	509.210205078125	-171.0178070068359	-269.5676574707031	35.07858276367188	-119.2317962646484	-374.0451049804688	392.6967468261719	-148.5192260742188	-481.70654296875	47.0701904296875	-90.79203033447266	-430.1299438476562	44.41511917114258	-44.43192672729492	-378.8792419433594	36.10249328613281	-154.199951171875	-210.0809478759766	39.33383178710938	-55.14023590087891	-438.9856567382812	771.65576171875	-223.409423828125	
241	2.4	-302.8693237304688	1036.971435546875	-100.7297286987305	-308.7485656738281	1035.79150390625	19.49924087524414	-308.74853515625	1123.813354492188	-32.5599479675293	-572.3878173828125	1296.155883789062	-33.81444931030273	-312.0534057617188	1249.350830078125	-48.49744415283203	-390.5582885742188	1507.696411132812	-54.815673828125	-551.9420166015625	1414.621215820312	-40.45546722412109	-311.1151733398438	1369.494750976562	-129.5597076416016	-367.1871032714844	1474.28662109375	57.06079864501953	-453.3298645019531	1475.73486328125	120.79248046875	-401.5583801269531	1363.2802734375	200.4660797119141	-364.6055603027344	1156.04638671875	227.1867828369141	-301.7189331054688	1153.71337890625	166.7483825683594	-404.98681640625	903.81689453125	189.3403930664062	-360.861328125	898.1575317382812	262.4338073730469	-358.84033203125	1047.6318359375	245.6132965087891	-352.3800354003906	715.1356811523438	196.3492431640625	-352.9308166503906	808.2516479492188	260.3901672363281	-404.0004272460938	797.5367431640625	216.6301422119141	-457.9627685546875	1453.933715820312	-216.1779174804688	-445.2914733886719	1388.16455078125	-283.6394653320312	-452.0517272949219	1104.609252929688	-317.3877258300781	-403.1469116210938	1099.587890625	-234.1747741699219	-608.5017700195312	916.9057006835938	-240.2997741699219	-569.103271484375	889.8185424804688	-310.0701293945312	-488.6043701171875	1039.546264648438	-321.6277160644531	-656.36083984375	731.140869140625	-218.1075286865234	-670.35791015625	806.0092163085938	-240.8518676757812	-627.117919921875	792.4385986328125	-297.5563049316406	-423.7239685058594	1652.8330078125	-106.3115310668945	-617.9019165039062	1711.866333007812	-3.693441152572632	-622.1480102539062	1708.019409179688	-103.9520034790039	-462.0861206054688	1666.795532226562	27.8305835723877	-420.7710266113281	971.0567626953125	149.0796966552734	-390.6078796386719	1000.148864746094	-216.7811889648438	-492.4523010253906	1037.229614257812	-187.0399322509766	-516.6776733398438	1013.462280273438	92.63671112060547	-599.0682983398438	519.1831665039062	106.3306579589844	-541.2951049804688	648.9078369140625	139.4031219482422	-653.6984252929688	36.23677062988281	75.33864593505859	-611.9204711914062	288.1207275390625	101.4302368164062	-861.8388671875	106.5568618774414	81.09525299072266	-810.6672973632812	88.15789031982422	21.55669021606445	-768.4581909179688	67.89363098144531	125.2469177246094	-606.0798950195312	32.05456161499023	9.869558334350586	-374.0189208984375	509.7200622558594	-171.5841064453125	-269.3203735351562	34.74400329589844	-119.4049987792969	-369.3991088867188	393.4255676269531	-149.0482940673828	-481.5179748535156	47.18105316162109	-90.72767639160156	-429.9557800292969	44.42553329467773	-44.42621612548828	-378.7061462402344	36.12933349609375	-154.1902008056641	-209.8936004638672	38.77249145507812	-55.22962188720703	-432.0979919433594	772.4176025390625	-223.7326049804688	
242	2.41	-295.5892639160156	1037.905517578125	-101.0961990356445	-301.120361328125	1036.6953125	19.1874942779541	-301.3780212402344	1124.547485351562	-32.86936950683594	-565.4519653320312	1296.63134765625	-34.01800918579102	-304.94287109375	1250.162841796875	-48.72422027587891	-383.8831481933594	1508.430297851562	-55.26952362060547	-545.1602172851562	1415.083984375	-40.79267501831055	-304.0886535644531	1370.165649414062	-129.7133026123047	-360.51806640625	1475.146362304688	56.64949035644531	-446.5762023925781	1476.495727539062	120.4610214233398	-394.2099304199219	1364.18505859375	200.0279998779297	-356.1079711914062	1157.071044921875	226.4926605224609	-293.384521484375	1155.203125	165.8345184326172	-394.2265930175781	904.487548828125	188.7903900146484	-349.9062805175781	899.227783203125	261.7540283203125	-349.315185546875	1048.760620117188	244.90234375	-339.9049987792969	716.3427124023438	195.5347900390625	-341.0266723632812	809.396240234375	259.6422119140625	-392.261474609375	798.2526245117188	216.0272064208984	-451.0307006835938	1454.144409179688	-216.5881652832031	-438.1967163085938	1388.250732421875	-283.8933715820312	-445.3042602539062	1104.691284179688	-317.4159240722656	-396.7631225585938	1100.049560546875	-234.1197814941406	-602.0731811523438	917.598388671875	-239.6304168701172	-562.8333129882812	890.1284790039062	-309.3958129882812	-481.9622802734375	1039.67529296875	-321.4685974121094	-650.840087890625	732.2261962890625	-216.7530822753906	-664.2186889648438	807.0451049804688	-239.6595306396484	-621.360595703125	793.0538330078125	-296.4993896484375	-417.2193298339844	1653.435424804688	-106.9782791137695	-611.414306640625	1712.481811523438	-4.50645923614502	-615.6624145507812	1708.494384765625	-104.7580642700195	-455.6195983886719	1667.58544921875	27.13277244567871	-412.6455078125	971.5779418945312	148.7140808105469	-383.3797302246094	1001.142150878906	-217.1403198242188	-485.1930541992188	1037.925048828125	-187.3339080810547	-508.8916015625	1013.882202148438	92.51103210449219	-592.666015625	520.1271362304688	107.268440246582	-534.2720947265625	649.7001953125	140.5589294433594	-638.2178344726562	36.16400527954102	75.13649749755859	-601.0765380859375	288.6529541015625	101.7859954833984	-847.1542358398438	103.088737487793	84.63155364990234	-796.9832763671875	85.62638092041016	24.18174171447754	-752.5414428710938	65.59561157226562	127.0454254150391	-591.5992431640625	33.1274528503418	8.815958976745605	-369.2225036621094	510.1979675292969	-172.0553588867188	-269.1478881835938	34.49304580688477	-119.624267578125	-365.5143737792969	394.0921325683594	-149.4745483398438	-481.3592529296875	47.28110122680664	-90.61512756347656	-429.8114624023438	44.44308853149414	-44.41313552856445	-378.5851745605469	36.16164779663086	-154.1785888671875	-209.7590179443359	38.41502380371094	-55.40105819702148	-425.7938842773438	773.2280883789062	-223.8980102539062	
